<?xml version="1.0" ?><svg style="enable-background:new 0 0 100 100;" version="1.1" viewBox="0 0 100 100" xml:space="preserve" xmlns="http://www.w3.org/2000/svg" xmlns:xlink="http://www.w3.org/1999/xlink"><style type="text/css">
	.st0{fill:#FFFFFF;}
	.st1{fill:none;stroke:#000000;stroke-width:3;stroke-linecap:round;stroke-linejoin:round;stroke-miterlimit:10;}
	
		.st2{fill-rule:evenodd;clip-rule:evenodd;fill:none;stroke:#000000;stroke-width:3;stroke-linecap:round;stroke-linejoin:round;stroke-miterlimit:10;}
	
		.st3{fill-rule:evenodd;clip-rule:evenodd;fill:none;stroke:#040404;stroke-width:3;stroke-linecap:round;stroke-linejoin:round;stroke-miterlimit:10;}
	.st4{fill-rule:evenodd;clip-rule:evenodd;}
	.st5{fill-rule:evenodd;clip-rule:evenodd;fill:#040404;}
	.st6{fill:none;stroke:#000000;stroke-width:3;stroke-miterlimit:10;}
	.st7{fill:none;stroke:#FFFFFF;stroke-miterlimit:10;}
	.st8{fill:url(#SVGID_1_);}
	.st9{fill:url(#SVGID_2_);}
	.st10{fill:url(#SVGID_3_);}
	.st11{fill:url(#SVGID_4_);}
	.st12{fill:url(#SVGID_5_);}
	.st13{fill:url(#SVGID_6_);}
	.st14{fill:url(#SVGID_7_);}
	.st15{fill:url(#SVGID_8_);}
	.st16{fill:url(#SVGID_9_);}
	.st17{fill:url(#SVGID_10_);}
	.st18{fill:url(#SVGID_11_);}
	.st19{fill:url(#SVGID_12_);}
	.st20{fill:url(#SVGID_13_);}
	.st21{fill:url(#SVGID_14_);}
	.st22{fill:url(#SVGID_15_);}
	.st23{fill:url(#SVGID_16_);}
	.st24{fill:url(#SVGID_17_);}
	.st25{fill:url(#SVGID_18_);}
	.st26{fill:url(#SVGID_19_);}
	.st27{fill:url(#SVGID_20_);}
	.st28{fill:url(#SVGID_21_);}
	.st29{fill:url(#SVGID_22_);}
	.st30{fill:url(#SVGID_23_);}
	.st31{fill:url(#SVGID_24_);}
	.st32{fill:url(#SVGID_25_);}
	.st33{fill:url(#SVGID_26_);}
	.st34{fill:url(#SVGID_27_);}
	.st35{fill:url(#SVGID_28_);}
	.st36{fill:url(#SVGID_29_);}
	.st37{fill:url(#SVGID_30_);}
	.st38{fill:url(#SVGID_31_);}
	.st39{fill:url(#SVGID_32_);}
	.st40{fill:url(#SVGID_33_);}
	.st41{fill:url(#SVGID_34_);}
	.st42{fill:url(#SVGID_35_);}
	.st43{fill:url(#SVGID_36_);}
	.st44{fill:url(#SVGID_37_);}
	.st45{fill:url(#SVGID_38_);}
	.st46{fill:url(#SVGID_39_);}
	.st47{fill:url(#SVGID_40_);}
	.st48{fill:url(#SVGID_41_);}
	.st49{fill:url(#SVGID_42_);}
	.st50{fill:url(#SVGID_43_);}
	.st51{fill:url(#SVGID_44_);}
	.st52{fill:url(#SVGID_45_);}
	.st53{fill:#040404;}
	.st54{fill:url(#SVGID_46_);}
	.st55{fill:url(#SVGID_47_);}
	.st56{fill:url(#SVGID_48_);}
	.st57{fill:url(#SVGID_49_);}
	.st58{fill:url(#SVGID_50_);}
	.st59{fill:url(#SVGID_51_);}
	.st60{fill:url(#SVGID_52_);}
	.st61{fill:url(#SVGID_53_);}
	.st62{fill:url(#SVGID_54_);}
	.st63{fill:url(#SVGID_55_);}
	.st64{fill:url(#SVGID_56_);}
	.st65{fill:url(#SVGID_57_);}
	.st66{fill:url(#SVGID_58_);}
	.st67{fill:url(#SVGID_59_);}
	.st68{fill:url(#SVGID_60_);}
	.st69{fill:url(#SVGID_61_);}
	.st70{fill:url(#SVGID_62_);}
	.st71{fill:url(#SVGID_63_);}
</style><g id="Layer_1"/><g id="Layer_2"><path d="M65.977,72.296c-5.411,6.881-17.14,11.354-27.581,11.204C3.726,82.957,1.92,49.131,38.854,44.221   c1.828-0.152,2.092,2.57,0.276,2.774C18.672,48.657,4.476,66.872,23.164,77.281c11.544,6.48,32.761,3.398,40.657-6.751   C72.982,58.653,61.6,47.924,45.9,46.889c-1.82-0.161-1.645-2.872,0.194-2.781C64.076,45.189,76.627,58.656,65.977,72.296z    M73.611,79.783c-33.379,23.381-100.237-1.55-57.006-43.813c9.376-9.22,24.269-18.695,32.23-11.806   c2.465,2.479,2.994,6.472,1.54,11.575c14.518-6.269,27.938-3.483,22.524,11.047c-0.253,0.423,0.234,0.328,0.633,0.506   C91.458,53.053,87.729,70.34,73.611,79.783z M72.706,49.955c-2.019-0.418-3.407-1.93-2.397-4.198   c4.575-11.859-6.657-12.488-18.715-7.503c-1.734,0.905-5.06,0.648-4.052-2.763c1.844-6.258,0.889-10.783-5.157-10.892   C28.522,24.436,4.31,48.619,5.242,62.85c0,11.367,13.947,23.125,37.287,23.125C72.843,86.955,97.741,59.055,72.706,49.955z    M96.203,45.02c-2.223,6.137-11.173,3.182-9.371-3.032c3.821-11.544-6.633-23.147-18.526-20.528   c-6.407,1.154-8.368-8.07-2.056-9.623C85.457,7.595,102.391,26.362,96.203,45.02z M66.831,14.564   c-2.725,0.658-1.88,4.684,0.895,4.17c13.75-3.198,26.364,10.704,21.759,24.11c-0.794,2.711,3.156,3.959,4.067,1.304   C99.073,27.516,83.955,10.779,66.831,14.564z M75.837,38.452c1.117-3.105-1.908-6.475-5.124-5.681   c-1.142,0.249-2.321,0.037-3.315-0.6c-3.318-2.024-2.318-7.355,1.477-8.069c9.827-2.232,18.614,7.511,15.405,17.074   C82.243,46.715,74.247,44.06,75.837,38.452z M78.49,39.31c-0.616,2.065,2.435,3.064,3.139,1.006   c2.56-7.511-4.446-15.283-12.173-13.487c-1.404,0.248-1.782,2.259-0.551,2.996c0.831,0.561,1.824-0.022,2.73,0.061   C76.368,29.736,80.087,34.85,78.49,39.31z M53.656,59.173c4.845,10.172-5.612,20.927-16.031,20.584   c-10.197,0.238-18.21-9.253-13.395-18.923C29.309,49.902,47.918,47.553,53.656,59.173z M26.73,62.066   c-2.963,5.787,0.193,12.342,6.405,14.204c9.564,3.438,22.479-5.802,18.01-15.888c-1.33-2.761-4.024-4.844-7.389-5.715   C37.264,52.933,29.617,56.141,26.73,62.066z M38.475,63.189c0.564-5.035,8.421-3.796,6.181,1.234   c-0.831,1.464-2.622,2.17-4.152,1.672c1.833,7.262-9.94,11.556-12.483,4.132C26.38,64.596,33.935,59.848,38.475,63.189z    M42.22,63.067c0.284-0.61-0.765-0.28-0.9,0.08C41.013,63.694,42.11,63.404,42.22,63.067z M37.375,69.255   c2.413-4.577-4.125-5.845-6.228-2.321C28.651,71.465,35.229,72.848,37.375,69.255z"/></g></svg>